<svg width="30" height="30" viewBox="0 0 30 30" fill="none" xmlns="http://www.w3.org/2000/svg">
<rect width="29.9796" height="29.9796" rx="5" fill="#EF4036"/>
<path d="M15.68 16.4598H19.1608C18.5498 18.1868 16.895 19.4251 14.9577 19.4108C12.6071 19.3935 10.6634 17.5134 10.5721 15.1649C10.4743 12.6474 12.4944 10.5682 14.9909 10.5682C16.1324 10.5682 17.1741 11.0031 17.9594 11.7156C18.1455 11.8845 18.4286 11.8855 18.6116 11.7134L19.89 10.5103C20.0899 10.3222 20.0907 10.0044 19.8913 9.8156C18.6459 8.63591 16.9752 7.90059 15.1328 7.86462C11.2031 7.78792 7.89083 11.0092 7.86346 14.9388C7.83584 18.8978 11.0375 22.1159 14.9909 22.1159C18.7928 22.1159 21.8986 19.1396 22.1067 15.3904C22.1122 15.3434 22.1159 13.7548 22.1159 13.7548H15.68C15.4162 13.7548 15.2023 13.9686 15.2023 14.2323V15.9822C15.2023 16.246 15.4162 16.4598 15.68 16.4598Z" fill="white"/>
</svg>
