<svg width="28" height="28" viewBox="0 0 28 28" fill="none" xmlns="http://www.w3.org/2000/svg">
<rect x="0.772583" y="0.5" width="26.7274" height="26.7274" rx="1.5" stroke="#4B4B4B"/>
<path d="M14.1364 9.90873C11.9904 9.90873 10.2124 11.6561 10.2124 13.8327C10.2124 16.0093 11.9598 17.7566 14.1364 17.7566C16.3129 17.7566 18.0603 15.9786 18.0603 13.8327C18.0603 11.6868 16.2823 9.90873 14.1364 9.90873ZM14.1364 16.3465C12.7568 16.3465 11.6226 15.2122 11.6226 13.8327C11.6226 12.4532 12.7568 11.3189 14.1364 11.3189C15.5159 11.3189 16.6501 12.4532 16.6501 13.8327C16.6501 15.2122 15.5159 16.3465 14.1364 16.3465Z" fill="#4B4B4B"/>
<path d="M18.2159 10.7058C18.7069 10.7058 19.105 10.3078 19.105 9.81679C19.105 9.3258 18.7069 8.92777 18.2159 8.92777C17.7249 8.92777 17.3269 9.3258 17.3269 9.81679C17.3269 10.3078 17.7249 10.7058 18.2159 10.7058Z" fill="#4B4B4B"/>
<path d="M20.5127 7.51788C19.7156 6.69017 18.5814 6.26099 17.2938 6.26099H10.9787C8.31161 6.26099 6.53357 8.03903 6.53357 10.7061V16.9906C6.53357 18.3088 6.96275 19.443 7.82112 20.2708C8.64883 21.0678 9.75244 21.4663 11.0093 21.4663H17.2631C18.5814 21.4663 19.685 21.0371 20.482 20.2708C21.3097 19.4737 21.7389 18.3394 21.7389 17.0212V10.7061C21.7389 9.41855 21.3097 8.31493 20.5127 7.51788ZM20.3901 17.0212C20.3901 17.9716 20.0528 18.738 19.501 19.2591C18.9492 19.7803 18.1828 20.0562 17.2631 20.0562H11.0093C10.0897 20.0562 9.32326 19.7803 8.77145 19.2591C8.21965 18.7073 7.94374 17.9409 7.94374 16.9906V10.7061C7.94374 9.78642 8.21965 9.02002 8.77145 8.46821C9.2926 7.94706 10.0897 7.67116 11.0093 7.67116H17.3245C18.2441 7.67116 19.0105 7.94706 19.5623 8.49887C20.0835 9.05068 20.3901 9.81708 20.3901 10.7061V17.0212Z" fill="#4B4B4B"/>
</svg>
