<svg width="205" height="209" viewBox="0 0 205 209" fill="none" xmlns="http://www.w3.org/2000/svg">
<path d="M140.319 52.311C142.161 54.3174 144.386 56.102 145.641 58.2761C153.557 71.0995 159.202 84.7219 160.894 99.7748C161.975 109.041 162.599 118.401 163.424 127.814C163.596 129.591 163.985 130.56 165.767 131.577C168.027 132.83 169.997 134.763 171.508 136.789C173.906 140.35 174.733 140.896 178.613 139.337C179.056 140.105 179.425 140.744 180.016 141.767C179.302 142.009 178.588 142.251 177.874 142.493C177.288 142.66 176.702 142.828 175.328 143.11C177.293 143.851 178.45 144.377 180.213 145.064C179.114 145.528 178.346 145.972 177.248 146.435C178.444 147.62 179.439 148.751 180.561 149.808C180.379 150.084 180.123 150.232 179.941 150.508C178.341 149.215 176.795 147.72 174.495 145.807C175.017 147.894 175.297 149.266 175.578 150.639C175.45 150.713 175.194 150.861 175.066 150.935C174.529 149.71 174.121 148.411 173.53 147.388C171.979 144.702 170.375 142.218 166.524 142.054C163.865 141.884 161.255 140.321 158.793 139.014C156.533 137.761 154.608 137.679 151.934 138.37C142.942 140.834 133.802 143.041 124.643 144.919C112.534 147.306 100.479 149.491 88.2566 151.091C82.7956 151.686 77.1083 150.706 71.5341 150.514C70.1948 150.264 68.7667 150.747 67.7423 151.339C65.4375 152.67 63.2804 154.256 60.7934 155.862C61.3645 156.556 62.2113 157.431 62.7085 157.997C62.6048 159.591 62.5553 160.984 62.5254 162.707C61.9544 162.013 61.2552 161.394 60.6841 160.7C60.1131 160.007 59.542 159.313 58.8971 158.492C58.5671 158.512 58.2372 158.532 57.9073 158.552C57.5475 160.294 57.1139 161.909 56.7541 163.651C56.626 163.725 56.4241 163.671 56.2961 163.745C56.2521 161.895 56.0063 159.99 55.9623 158.14C55.6866 157.958 55.4847 157.904 55.337 157.648C54.2239 158.973 53.1108 160.298 51.9238 161.495C51.7219 161.441 51.5201 161.387 51.2443 161.205C52.1901 159.295 53.0818 157.586 54.4463 154.923C52.3779 155.776 50.8218 156.333 49.3937 156.817C49.3348 155.828 49.3348 155.828 55.0229 152.373C53.9396 151.975 52.9302 151.706 51.7731 151.18C52.0834 150.83 52.3937 150.481 52.5217 150.407C56.1164 150.719 57.3725 148.459 58.3874 145.485C58.8949 143.999 60.4856 142.91 62.2193 140.886C62.2193 140.886 62.0324 139.97 61.7174 139.129C58.4151 129.27 55.0586 119.612 51.7563 109.752C47.4156 96.9112 45.9703 83.7626 47.6767 70.1587C47.7655 69.4253 47.7804 68.5641 47.2831 67.9986C45.2204 65.6085 43.1576 63.2185 40.8929 60.7744C38.9722 61.8833 36.5394 63.2879 34.1066 64.6925C33.9589 64.4367 33.8112 64.1809 33.6635 63.9252C34.8851 62.1968 35.9786 60.5423 37.072 58.8878C35.442 59.3173 33.3541 59.8407 31.1381 60.438C30.9904 60.1822 30.8427 59.9265 30.8969 59.7246C32.7634 58.8176 34.8317 57.9645 37.1561 56.9635C35.9794 56.1082 35.0784 55.4347 33.9755 54.7073C35.5167 55.0111 36.7822 55.1331 38.9833 55.397C37.7869 54.212 37.1617 53.7204 36.3887 52.973C37.413 52.3816 40.3179 54.4559 38.4131 50.2695C39.8113 51.5085 40.5104 52.128 41.2095 52.7475C41.5544 51.8663 42.0469 51.2409 42.6825 49.6803C42.9087 51.2549 43.3517 52.0223 43.1349 52.8296C42.4499 55.7829 43.9762 56.948 46.6548 57.4478C48.5998 57.8595 50.7467 58.3253 52.401 59.4165C54.8087 60.9253 56.7686 60.4758 59.2753 59.1991C62.5502 57.4789 66.1008 55.9405 69.6711 54.7318C78.4417 51.8849 87.1384 48.9102 96.0221 46.8506C100.656 45.7099 105.846 46.124 110.76 46.3561C116.812 46.7842 122.647 48.0195 128.645 48.6494C129.58 48.7913 130.733 48.126 131.555 47.4806C133.456 46.042 135.209 44.3476 137.165 42.7072C138.425 41.6382 139.76 40.6971 138.505 38.523C137.766 37.244 137.924 35.4476 137.644 34.0748C137.974 34.0548 138.23 33.907 138.432 33.961C138.766 35.132 139.101 36.303 139.529 37.9316C140.534 37.0104 141.154 36.3111 141.977 35.6657C142.179 35.7197 142.381 35.7736 142.455 35.9015C142.001 37.1864 141.548 38.4712 140.641 41.0409C143.094 39.966 144.906 39.2608 147.487 38.112C146.447 39.5646 146.083 40.1161 145.536 40.9433C146.216 41.2331 146.693 41.469 147.978 41.9207C146.092 42.498 144.792 42.9076 143.62 43.2432C143.512 43.6468 143.531 43.9765 143.423 44.3802C145.24 44.8659 147.111 45.1498 148.928 45.6355C148.874 45.8373 149.022 46.0931 148.967 46.2949C146.988 46.4146 144.88 46.6083 142.699 46.6741C141.093 48.6243 139.231 50.7223 137.315 53.0222C136.966 52.7124 136.616 52.4026 136.341 52.2208C137.508 50.6942 138.803 49.0937 139.897 47.4392C140.261 46.8877 140.202 45.8986 140.217 45.0374C139.282 44.8954 138.198 44.4977 137.558 44.8673C135.967 45.9563 134.249 47.1191 133.283 48.6997C131.697 50.9795 130.269 51.463 127.645 50.7614C114.434 47.9869 101.227 46.4034 87.9899 50.9764C80.2633 53.5616 72.6648 56.0728 65.0121 58.7859C62.7418 59.585 60.6389 60.9697 58.4622 62.2264C56.6696 63.2614 55.2218 63.4151 53.3656 62.27C51.7851 61.3067 49.9486 60.4913 48.0036 60.0796C46.9942 59.8097 45.3642 60.2392 44.8716 60.8646C44.3791 61.4901 44.6988 63.5223 45.4521 63.94C49.6618 66.7958 49.1441 70.3346 48.6114 74.7347C47.2452 86.2665 48.7203 97.6926 52.5591 108.777C56.2306 119.276 59.7002 129.721 63.4998 140.146C64.0559 141.701 64.3905 142.872 62.6718 144.035C61.4652 144.902 60.2782 146.099 59.6969 147.458C59.0959 148.487 58.8642 150.155 59.3811 151.051C60.341 152.713 62.1383 152.869 63.857 151.706C63.9851 151.632 64.2412 151.485 64.2954 151.283C66.9749 147.348 70.7714 147.714 74.8436 148.262C87.3902 149.886 99.7947 148.01 112.214 145.273C122.545 143.06 132.951 140.975 143.282 138.761C146.488 138.104 149.546 137.191 152.511 135.821C154.579 134.967 156.12 135.271 157.976 136.416C159.833 137.562 161.743 138.505 163.727 139.576C166.317 140.809 168.331 140.158 169.804 137.091C168.426 136.181 167.121 135.4 165.688 134.693C163.152 133.258 161.789 131.487 161.794 128.244C161.638 121.172 161.28 114.046 160.134 107.034C158.742 98.1181 157.276 89.074 154.84 80.4194C152.016 70.7956 147.123 62.0249 140.309 54.3632C139.959 54.0534 139.792 53.4679 139.443 53.1582C139.625 52.8824 139.935 52.5328 140.319 52.311Z" fill="#251C1C"/>
<path d="M63.4871 104.345C72.8279 106.625 81.677 105.097 90.3148 101.133C93.1514 99.8366 96.1702 98.2642 97.0179 94.7054C97.1805 94.1 97.6534 93.1448 98.2394 92.977C102.45 91.3987 101.904 87.7918 101.91 84.5487C102.049 77.9884 100.43 71.9316 96.9247 66.4522C96.7032 66.0685 96.6835 65.7388 96.5901 65.2812C96.8462 65.1334 97.2303 64.9116 97.4125 64.6358C98.4267 66.0966 99.6969 67.4096 100.381 68.8903C102.936 75.0891 104.648 81.6035 103.667 88.4794C103.381 90.3497 103.863 91.7765 105.68 92.2622C106.891 92.586 108.285 92.634 109.309 92.0426C119.956 86.2365 130.662 85.8536 141.573 91.1497C141.977 91.2577 142.198 91.6413 142.548 91.9511C142.622 92.079 142.567 92.2808 142.607 92.9402C136.772 91.7049 131.006 89.4065 125.323 89.6179C119.439 89.7754 113.711 92.5705 107.905 94.0468C108.127 94.4305 108.403 94.6123 108.624 94.996C107.846 97.4917 106.791 99.8056 106.013 102.301C105.796 103.109 105.801 104.3 106.298 104.865C112.452 112.567 112.834 121.213 111.129 130.383C110.661 132.529 110.724 134.709 110.66 136.963C110.33 136.983 110 137.003 109.744 137.151C109.483 136.108 109.094 135.139 109.035 134.15C109.297 130.759 109.431 127.442 110.096 124.159C111.368 116.603 107.695 110.538 103.969 104.675C103.6 104.036 102.462 103.84 101.783 103.55C99.9462 102.735 98.2377 101.845 95.9974 100.922C85.8034 105.443 75.2253 110.186 63.4871 104.345ZM103.059 101.62C105.93 99.7916 106.817 96.8922 105.783 95.1017C104.971 93.6949 101.007 92.7434 99.9134 94.3979C99.0021 95.7766 98.5535 98.2524 99.1097 99.8071C99.5724 100.904 102.103 101.148 103.059 101.62Z" fill="#251C1C"/>
<path d="M89.1188 142.237C91.4086 141.768 93.7527 141.096 96.1706 140.553C96.1902 140.883 96.3379 141.139 96.2837 141.34C94.0135 142.14 92.0237 144.311 89.1188 142.237Z" fill="#251C1C"/>
</svg>
