<svg width="575" height="599" viewBox="0 0 575 599" fill="none" xmlns="http://www.w3.org/2000/svg">
<path d="M549.6 396.111C551.419 395.687 553.18 394.26 552.669 392.137C552.332 390.621 551.271 389.676 549.893 389.118C551.134 388.169 551.992 386.804 551.36 385.176C550.182 382.224 546.66 382.676 544.133 383.271C541.606 383.865 538.471 384.635 536.872 386.97C536.23 387.944 535.872 389.33 536.325 390.45C536.513 390.758 536.696 391.166 536.887 391.374C536.271 391.749 536.337 392.552 536.92 392.977C540.503 395.83 545.353 397.134 549.6 396.111ZM540.821 393.041L540.816 393.14C540.716 393.136 540.621 393.032 540.521 393.028C540.725 392.936 540.821 393.041 540.821 393.041ZM550.854 392.461C550.658 392.352 550.562 392.248 550.363 392.24C550.471 392.044 550.479 391.845 550.388 391.641C550.575 391.949 550.766 392.157 550.854 392.461ZM549.694 386.707L549.594 386.703C549.394 386.694 549.199 386.586 548.999 386.578C549.311 386.291 549.428 385.895 549.345 385.491C549.536 385.7 549.628 385.904 549.715 386.208C549.711 386.307 549.702 386.507 549.694 386.707ZM538.403 388.635C538.624 388.144 538.841 387.753 539.257 387.37C539.457 387.378 539.652 387.487 539.752 387.491C539.748 387.591 539.844 387.695 539.944 387.699C539.34 387.774 539.024 388.161 539.003 388.661C538.491 388.939 538.361 389.634 538.54 390.142C538.245 390.03 538.286 389.031 538.403 388.635ZM543.185 393.94C544.08 394.078 545.075 394.22 545.97 394.358C546.17 394.366 546.27 394.37 546.469 394.379C546.769 394.391 546.973 394.3 547.077 394.204C547.377 394.216 547.573 394.325 547.872 394.337C547.673 394.329 547.473 394.321 547.269 394.412C545.862 394.553 544.467 394.395 543.185 393.94Z" fill="#39B100"/>
<path d="M549.055 380.474C547.756 380.42 546.336 380.861 545.012 381.406C543.992 381.863 542.872 382.317 541.848 382.874C540.311 383.711 538.875 384.551 537.725 385.704C537.205 386.183 536.78 386.765 536.255 387.344C536.151 387.439 536.147 387.539 536.039 387.735C536.009 388.434 535.876 389.23 536.046 389.937C536.13 390.341 536.512 390.758 536.795 391.17C537.178 391.586 537.457 392.098 537.944 392.419C538.331 392.736 538.614 393.148 539.209 393.273C539.805 393.398 540.287 393.819 540.874 394.143C541.761 394.481 542.548 394.814 543.434 395.152C544.325 395.389 545.216 395.627 546.211 395.769C547.306 395.915 548.405 395.961 549.421 395.603C550.029 395.428 550.736 395.258 551.253 394.879C551.765 394.6 552.185 394.118 552.602 393.735C553.335 392.965 553.968 392.191 553.914 391.088C553.839 390.484 553.665 389.876 553.486 389.368C553.307 388.86 552.928 388.344 552.649 387.832C552.554 387.728 552.566 387.428 552.67 387.332C552.887 386.941 553.203 386.554 553.52 386.167C554.59 384.51 553.862 382.778 552.406 381.716C551.049 380.658 550.553 380.537 549.055 380.474ZM549.225 381.182C549.829 381.107 550.42 381.332 551.007 381.657C551.302 381.77 551.594 381.982 551.885 382.195C553.542 383.265 553.67 384.972 552.617 386.229C552.296 386.716 551.879 387.099 551.463 387.482C550.734 388.152 550.01 388.722 548.998 388.98C548.898 388.975 548.794 389.071 548.69 389.167C548.586 389.262 548.477 389.458 548.573 389.562C548.569 389.662 548.865 389.775 548.964 389.779C549.268 389.691 549.672 389.608 549.876 389.517C550.493 389.142 551.109 388.768 551.729 388.293C551.937 388.102 552.133 388.21 552.225 388.414C552.412 388.722 552.595 389.13 552.782 389.439C552.965 389.847 553.148 390.255 553.327 390.763C553.576 391.974 552.835 392.944 551.898 393.805C550.757 394.758 549.346 394.999 547.943 395.041C546.34 395.073 544.858 394.611 543.476 394.153C542.094 393.694 540.821 393.04 539.551 392.286C538.673 391.749 537.899 391.116 537.437 390.196C537.162 389.584 537.088 388.98 537.013 388.376C537.042 387.677 537.267 387.086 537.792 386.507C538.729 385.646 539.766 384.789 540.894 384.135C542.226 383.391 543.555 382.746 544.983 382.105C546.307 381.56 547.627 381.115 549.225 381.182Z" fill="#251C1C"/>
<path d="M560.249 392.755C561.348 392.801 562.36 392.543 563.184 391.977C563.492 391.79 563.701 391.599 563.517 391.191C563.422 391.087 563.53 390.891 563.538 390.691C563.564 390.092 563.485 389.588 562.998 389.267C562.711 388.955 562.419 388.743 562.032 388.426C561.262 387.693 560.163 387.647 559.156 387.805C558.052 387.859 556.941 388.112 556.104 388.978C555.579 389.556 555.254 390.143 555.524 390.855C555.616 391.059 555.807 391.267 556.099 391.48C557.368 392.234 558.95 392.701 560.249 392.755ZM560.03 388.442C560.729 388.471 561.025 388.584 561.512 388.905C561.899 389.221 562.186 389.533 562.577 389.75C563.355 390.283 562.701 391.557 561.994 391.727C560.166 392.351 558.388 391.776 556.823 390.91C556.236 390.585 556.162 389.981 556.682 389.503C557.094 389.22 557.507 388.937 558.015 388.758C558.722 388.587 559.326 388.513 560.03 388.442Z" fill="#251C1C"/>
<path d="M558.791 398.9C559.395 398.825 560.103 398.655 560.711 398.48C560.915 398.388 561.227 398.101 561.235 397.901C561.464 397.21 561.39 396.607 560.815 395.982C560.141 395.353 559.255 395.016 558.359 394.878C557.464 394.74 556.474 394.499 555.562 394.761C555.054 394.94 554.642 395.223 554.421 395.714C554.088 396.5 554.458 397.217 555.241 397.65C556.21 398.391 557.397 398.741 558.791 398.9C558.696 398.796 558.791 398.9 558.791 398.9ZM558.629 397.992C558.134 397.871 557.834 397.859 557.534 397.846C557.039 397.725 556.544 397.604 556.152 397.388C555.757 397.271 555.47 396.959 555.178 396.746C554.791 396.43 554.908 396.034 555.316 395.851C555.824 395.673 556.432 395.498 557.031 395.523C557.631 395.548 558.222 395.773 558.821 395.798C559.517 395.928 560.003 396.248 560.386 396.665C560.578 396.873 560.669 397.077 560.557 397.372C560.344 397.664 560.041 397.751 559.741 397.739C559.641 397.734 559.441 397.726 559.337 397.822C559.033 397.909 558.829 398.001 558.629 397.992Z" fill="#251C1C"/>
<path d="M554.957 380.523C556.356 380.582 557.58 380.032 558.517 379.171C559.242 378.601 559.87 377.927 560.104 377.136C560.337 376.345 559.584 375.212 558.585 375.17C556.982 375.203 555.467 375.54 554.217 376.689C553.697 377.167 553.176 377.646 552.947 378.337C552.501 379.419 553.259 380.452 554.558 380.506C554.757 380.515 554.857 380.519 554.957 380.523ZM555.182 379.932C555.082 379.928 554.982 379.923 554.782 379.915C553.683 379.869 553.313 379.153 553.85 378.275C554.063 377.983 554.375 377.696 554.687 377.409C555.629 376.448 556.944 376.102 558.351 375.961C558.951 375.986 559.429 376.507 559.309 377.002C559.179 377.698 558.655 378.276 558.034 378.75C557.305 379.42 556.481 379.986 555.182 379.932Z" fill="#251C1C"/>
<path d="M558.561 385.278C559.568 385.12 560.568 385.162 561.492 384.601C562.008 384.222 562.62 383.947 563.237 383.573C563.649 383.29 563.865 382.899 563.882 382.499C563.895 382.199 563.907 381.9 563.412 381.779C563.312 381.774 563.216 381.67 563.216 381.67C562.75 380.85 561.86 380.613 560.96 380.575C559.362 380.508 557.942 380.949 556.992 382.11C556.78 382.401 556.568 382.692 556.351 383.084C555.918 383.866 556.48 384.791 557.566 385.136C557.766 385.145 558.161 385.262 558.561 385.278ZM558.786 384.687C558.391 384.571 557.891 384.55 557.5 384.333C556.909 384.108 556.73 383.6 556.955 383.009C557.063 382.813 557.275 382.522 557.484 382.331C558.525 381.373 559.84 381.028 561.331 381.291C562.226 381.429 562.5 382.041 562.675 382.649C562.854 383.157 562.25 383.231 562.038 383.523C562.038 383.523 562.038 383.523 561.934 383.618C561.105 384.284 560.085 384.742 558.786 384.687Z" fill="#251C1C"/>
<path d="M269.591 389.261C271.25 390.12 273.516 390.178 274.506 388.231C275.234 386.86 275.04 385.452 274.355 384.132C275.915 384.216 277.454 383.735 278.03 382.087C279.051 379.077 276.078 377.135 273.77 375.946C271.462 374.757 268.578 373.307 265.846 374.044C264.726 374.369 263.553 375.19 263.171 376.336C263.113 376.692 262.988 377.122 262.998 377.404C262.286 377.289 261.815 377.943 261.982 378.645C262.856 383.141 265.697 387.282 269.591 389.261ZM264.908 381.226L264.84 381.299C264.766 381.231 264.761 381.089 264.688 381.021C264.903 381.084 264.908 381.226 264.908 381.226ZM272.915 387.299C272.837 387.089 272.831 386.948 272.685 386.812C272.894 386.734 273.03 386.587 273.093 386.372C273.035 386.728 273.046 387.011 272.915 387.299ZM275.769 382.17L275.695 382.102C275.549 381.966 275.47 381.756 275.324 381.62C275.748 381.605 276.093 381.379 276.292 381.018C276.303 381.301 276.24 381.516 276.109 381.803C276.041 381.877 275.905 382.023 275.769 382.17ZM265.929 376.306C266.416 376.075 266.835 375.918 267.4 375.898C267.547 376.034 267.625 376.243 267.699 376.311C267.63 376.384 267.636 376.526 267.709 376.594C267.201 376.259 266.709 376.348 266.369 376.714C265.798 376.593 265.249 377.038 265.055 377.541C264.903 377.263 265.584 376.531 265.929 376.306ZM266.122 383.445C266.713 384.131 267.378 384.885 267.969 385.571C268.116 385.707 268.189 385.775 268.335 385.911C268.555 386.115 268.77 386.178 268.911 386.173C269.131 386.377 269.209 386.586 269.429 386.79C269.283 386.654 269.136 386.518 268.921 386.455C267.76 385.649 266.802 384.623 266.122 383.445Z" fill="#39B100"/>
<path d="M279.329 377.015C278.376 376.13 277.01 375.544 275.65 375.098C274.577 374.784 273.43 374.402 272.289 374.161C270.578 373.799 268.94 373.506 267.317 373.636C266.61 373.662 265.909 373.83 265.134 373.929C264.993 373.934 264.925 374.008 264.715 374.086C264.239 374.599 263.621 375.117 263.291 375.766C263.092 376.127 263.113 376.692 263.061 377.19C263.082 377.755 262.961 378.326 263.123 378.886C263.212 379.378 263.16 379.875 263.531 380.356C263.903 380.838 263.997 381.471 264.232 382.1C264.688 382.932 265.07 383.696 265.525 384.529C266.048 385.288 266.571 386.047 267.236 386.801C267.974 387.622 268.78 388.371 269.785 388.759C270.36 389.02 271.009 389.35 271.648 389.398C272.218 389.518 272.852 389.424 273.417 389.403C274.474 389.293 275.458 389.116 276.134 388.242C276.469 387.734 276.731 387.158 276.925 386.656C277.118 386.153 277.166 385.515 277.286 384.944C277.281 384.803 277.485 384.583 277.626 384.578C278.045 384.421 278.537 384.332 279.029 384.243C280.919 383.678 281.49 381.888 281.071 380.135C280.726 378.449 280.428 378.036 279.329 377.015ZM278.999 377.664C279.507 377.999 279.81 378.554 280.046 379.182C280.197 379.459 280.281 379.81 280.365 380.161C280.93 382.05 279.919 383.432 278.302 383.704C277.742 383.866 277.176 383.887 276.611 383.908C275.622 383.944 274.701 383.907 273.764 383.447C273.69 383.379 273.549 383.384 273.408 383.389C273.266 383.394 273.057 383.473 273.062 383.614C272.994 383.687 273.146 383.965 273.219 384.033C273.507 384.164 273.868 384.363 274.083 384.425C274.795 384.541 275.506 384.656 276.286 384.698C276.569 384.688 276.647 384.897 276.585 385.112C276.527 385.468 276.401 385.897 276.344 386.253C276.218 386.682 276.092 387.111 275.898 387.614C275.302 388.697 274.108 388.953 272.836 389C271.35 388.984 270.12 388.251 269.026 387.371C267.786 386.356 266.959 385.042 266.205 383.796C265.452 382.55 264.908 381.226 264.432 379.828C264.113 378.849 263.935 377.865 264.181 376.865C264.37 376.222 264.705 375.714 265.04 375.206C265.516 374.693 266.071 374.39 266.846 374.291C268.118 374.244 269.463 374.265 270.745 374.501C272.242 374.799 273.671 375.171 275.173 375.611C276.534 376.056 277.827 376.575 278.999 377.664Z" fill="#251C1C"/>
<path d="M279.87 393.623C280.676 394.372 281.613 394.833 282.607 394.937C282.963 394.995 283.246 394.985 283.372 394.555C283.366 394.414 283.576 394.336 283.712 394.189C284.12 393.75 284.387 393.315 284.225 392.755C284.21 392.331 284.126 391.98 284.037 391.488C283.927 390.431 283.121 389.682 282.253 389.148C281.379 388.473 280.368 387.944 279.17 388.059C278.395 388.158 277.767 388.394 277.51 389.111C277.447 389.325 277.458 389.608 277.542 389.959C278.018 391.356 278.918 392.738 279.87 393.623ZM282.504 390.2C283.016 390.677 283.168 390.954 283.33 391.514C283.419 392.006 283.435 392.43 283.592 392.849C283.838 393.76 282.513 394.304 281.864 393.974C280.069 393.262 279.091 391.671 278.463 389.996C278.227 389.367 278.562 388.86 279.269 388.834C279.766 388.886 280.264 388.939 280.766 389.132C281.415 389.462 281.923 389.797 282.504 390.2Z" fill="#251C1C"/>
<path d="M274.771 397.349C275.279 397.684 275.928 398.014 276.504 398.276C276.718 398.339 277.142 398.323 277.278 398.176C277.901 397.8 278.236 397.292 278.205 396.444C278.101 395.528 277.645 394.696 277.054 394.01C276.463 393.324 275.866 392.497 275.003 392.104C274.5 391.911 274.003 391.858 273.516 392.088C272.752 392.47 272.568 393.255 272.882 394.093C273.139 395.286 273.814 396.323 274.771 397.349C274.766 397.208 274.771 397.349 274.771 397.349ZM275.237 396.553C274.939 396.14 274.719 395.936 274.499 395.732C274.201 395.318 273.903 394.904 273.746 394.486C273.521 394.14 273.505 393.716 273.422 393.365C273.333 392.873 273.678 392.648 274.107 392.774C274.61 392.968 275.185 393.23 275.625 393.638C276.065 394.046 276.368 394.601 276.808 395.01C277.253 395.559 277.415 396.119 277.436 396.685C277.446 396.967 277.383 397.182 277.106 397.334C276.755 397.417 276.467 397.286 276.247 397.082C276.174 397.014 276.028 396.878 275.886 396.883C275.598 396.752 275.384 396.69 275.237 396.553Z" fill="#251C1C"/>
<path d="M283.788 380.884C284.813 381.837 286.101 382.214 287.373 382.167C288.294 382.204 289.21 382.099 289.901 381.649C290.592 381.199 290.755 379.849 290.022 379.168C288.782 378.152 287.41 377.425 285.715 377.487C285.008 377.513 284.301 377.539 283.678 377.916C282.637 378.45 282.542 379.727 283.495 380.611C283.641 380.748 283.714 380.816 283.788 380.884ZM284.343 380.58C284.269 380.512 284.196 380.444 284.05 380.308C283.244 379.559 283.427 378.774 284.406 378.455C284.756 378.372 285.18 378.356 285.604 378.34C286.944 378.22 288.169 378.812 289.331 379.618C289.771 380.026 289.797 380.733 289.383 381.031C288.833 381.476 288.059 381.575 287.279 381.533C286.29 381.57 285.295 381.465 284.343 380.58Z" fill="#251C1C"/>
<path d="M283.441 386.84C284.31 387.374 285.043 388.055 286.11 388.228C286.749 388.275 287.393 388.464 288.105 388.579C288.602 388.631 289.021 388.474 289.293 388.181C289.497 387.961 289.701 387.742 289.403 387.328C289.33 387.26 289.324 387.119 289.324 387.119C289.502 386.192 288.979 385.433 288.32 384.821C287.148 383.732 285.782 383.145 284.305 383.412C283.955 383.496 283.604 383.579 283.185 383.736C282.348 384.05 282.175 385.118 282.777 386.086C282.923 386.222 283.148 386.568 283.441 386.84ZM283.996 386.537C283.771 386.191 283.405 385.851 283.248 385.432C282.944 384.877 283.138 384.375 283.693 384.071C283.902 383.993 284.253 383.909 284.536 383.899C285.949 383.847 287.174 384.438 288.136 385.606C288.728 386.292 288.539 386.935 288.277 387.511C288.084 388.014 287.576 387.678 287.225 387.762C287.225 387.762 287.225 387.762 287.084 387.767C286.021 387.736 284.948 387.421 283.996 386.537Z" fill="#251C1C"/>
<path d="M150.727 233.289C152.589 233.43 154.698 232.595 154.846 230.416C154.978 228.87 154.249 227.65 153.102 226.705C154.57 226.171 155.797 225.125 155.682 223.383C155.443 220.214 151.947 219.591 149.357 219.401C146.768 219.211 143.547 219.006 141.321 220.755C140.418 221.492 139.661 222.707 139.758 223.912C139.844 224.262 139.896 224.706 140.017 224.962C139.317 225.135 139.139 225.921 139.568 226.501C142.132 230.296 146.369 232.993 150.727 233.289ZM143.271 227.73L143.237 227.824C143.143 227.79 143.082 227.662 142.988 227.628C143.21 227.602 143.271 227.73 143.271 227.73ZM153.017 230.182C152.862 230.02 152.802 229.892 152.614 229.824C152.776 229.67 152.844 229.482 152.818 229.26C152.904 229.61 153.024 229.866 153.017 230.182ZM153.634 224.345L153.54 224.311C153.351 224.243 153.197 224.081 153.009 224.014C153.393 223.833 153.623 223.491 153.664 223.081C153.785 223.337 153.811 223.559 153.803 223.875C153.769 223.969 153.701 224.157 153.634 224.345ZM142.284 222.803C142.641 222.4 142.965 222.092 143.477 221.851C143.665 221.919 143.82 222.081 143.914 222.115C143.88 222.209 143.94 222.337 144.034 222.371C143.436 222.262 143.018 222.536 142.848 223.006C142.276 223.119 141.944 223.744 141.963 224.282C141.715 224.086 142.054 223.145 142.284 222.803ZM145.257 229.297C146.069 229.696 146.976 230.129 147.789 230.529C147.977 230.597 148.071 230.631 148.259 230.699C148.541 230.8 148.764 230.774 148.892 230.714C149.174 230.816 149.328 230.978 149.61 231.08C149.422 231.012 149.234 230.944 149.012 230.97C147.627 230.683 146.344 230.114 145.257 229.297Z" fill="#39B100"/>
<path d="M154.89 218.208C153.668 217.767 152.181 217.762 150.754 217.885C149.644 218.016 148.44 218.114 147.296 218.339C145.579 218.676 143.957 219.048 142.515 219.804C141.875 220.104 141.295 220.533 140.621 220.928C140.493 220.988 140.459 221.082 140.297 221.236C140.06 221.895 139.694 222.613 139.645 223.34C139.603 223.75 139.844 224.262 139.99 224.74C140.231 225.252 140.344 225.824 140.712 226.276C140.987 226.694 141.133 227.172 141.664 227.469C142.194 227.767 142.529 228.313 142.991 228.799C143.736 229.386 144.387 229.94 145.132 230.528C145.911 231.021 146.689 231.515 147.596 231.948C148.597 232.415 149.632 232.788 150.708 232.751C151.34 232.767 152.067 232.816 152.673 232.609C153.245 232.497 153.791 232.162 154.303 231.922C155.233 231.407 156.068 230.858 156.348 229.789C156.457 229.191 156.473 228.558 156.454 228.02C156.436 227.482 156.229 226.876 156.116 226.304C156.056 226.176 156.158 225.894 156.286 225.833C156.61 225.525 157.028 225.251 157.446 224.976C158.963 223.716 158.787 221.846 157.716 220.396C156.738 218.98 156.301 218.717 154.89 218.208ZM154.841 218.934C155.439 219.044 155.936 219.435 156.399 219.921C156.647 220.117 156.861 220.407 157.076 220.697C158.335 222.214 157.947 223.881 156.565 224.765C156.113 225.133 155.601 225.374 155.089 225.614C154.193 226.035 153.331 226.362 152.289 226.305C152.195 226.271 152.067 226.332 151.939 226.392C151.811 226.452 151.649 226.606 151.709 226.734C151.675 226.828 151.923 227.024 152.017 227.058C152.334 227.066 152.744 227.107 152.966 227.081C153.666 226.908 154.366 226.736 155.1 226.469C155.356 226.349 155.51 226.51 155.536 226.733C155.623 227.083 155.675 227.527 155.762 227.877C155.814 228.321 155.866 228.765 155.885 229.303C155.76 230.534 154.762 231.237 153.61 231.778C152.236 232.346 150.818 232.153 149.467 231.772C147.928 231.323 146.652 230.438 145.471 229.587C144.29 228.736 143.27 227.73 142.285 226.631C141.608 225.855 141.059 225.019 140.894 224.003C140.815 223.337 140.925 222.738 141.034 222.14C141.272 221.481 141.664 220.985 142.338 220.59C143.49 220.049 144.736 219.541 146.008 219.256C147.502 218.945 148.963 218.727 150.517 218.544C151.943 218.42 153.336 218.391 154.841 218.934Z" fill="#251C1C"/>
<path d="M161.894 233.278C162.928 233.652 163.971 233.709 164.927 233.416C165.277 233.329 165.533 233.209 165.48 232.765C165.42 232.637 165.582 232.483 165.65 232.295C165.854 231.73 165.929 231.226 165.561 230.774C165.38 230.39 165.166 230.1 164.891 229.682C164.376 228.752 163.342 228.379 162.333 228.228C161.264 227.949 160.128 227.858 159.07 228.433C158.396 228.828 157.91 229.29 157.955 230.051C157.981 230.273 158.101 230.529 158.316 230.819C159.301 231.918 160.671 232.837 161.894 233.278ZM162.976 229.098C163.635 229.335 163.883 229.531 164.251 229.983C164.526 230.401 164.706 230.785 165.015 231.109C165.598 231.85 164.592 232.87 163.866 232.82C161.935 232.868 160.412 231.787 159.178 230.492C158.715 230.006 158.825 229.408 159.465 229.107C159.943 228.96 160.421 228.814 160.959 228.795C161.685 228.845 162.284 228.954 162.976 229.098Z" fill="#251C1C"/>
<path d="M158.661 238.703C159.259 238.812 159.986 238.862 160.618 238.877C160.84 238.851 161.224 238.67 161.292 238.482C161.717 237.892 161.827 237.293 161.466 236.525C161.011 235.723 160.266 235.136 159.454 234.736C158.641 234.337 157.768 233.81 156.82 233.786C156.282 233.805 155.803 233.951 155.446 234.354C154.892 235.005 155.031 235.799 155.648 236.447C156.351 237.444 157.378 238.134 158.661 238.703C158.601 238.575 158.661 238.703 158.661 238.703ZM158.778 237.788C158.342 237.525 158.06 237.423 157.777 237.321C157.341 237.057 156.904 236.794 156.596 236.47C156.254 236.24 156.073 235.856 155.859 235.566C155.584 235.148 155.814 234.806 156.258 234.753C156.797 234.735 157.429 234.75 157.993 234.954C158.558 235.157 159.054 235.549 159.619 235.753C160.243 236.084 160.612 236.536 160.852 237.048C160.973 237.304 160.999 237.526 160.803 237.774C160.513 237.989 160.197 237.981 159.915 237.879C159.821 237.845 159.632 237.777 159.504 237.838C159.188 237.83 158.966 237.856 158.778 237.788Z" fill="#251C1C"/>
<path d="M160.508 220.021C161.825 220.496 163.158 220.339 164.31 219.797C165.172 219.47 165.974 219.016 166.433 218.331C166.893 217.646 166.514 216.34 165.573 216.001C164.034 215.552 162.487 215.419 160.951 216.141C160.311 216.442 159.671 216.742 159.245 217.333C158.496 218.232 158.909 219.444 160.132 219.885C160.32 219.953 160.414 219.987 160.508 220.021ZM160.9 219.524C160.806 219.49 160.712 219.457 160.524 219.389C159.489 219.015 159.35 218.221 160.126 217.544C160.416 217.33 160.8 217.15 161.184 216.969C162.37 216.334 163.728 216.399 165.113 216.685C165.678 216.889 165.978 217.529 165.715 217.965C165.383 218.59 164.709 218.985 163.975 219.251C163.079 219.672 162.123 219.965 160.9 219.524Z" fill="#251C1C"/>
<path d="M162.524 225.639C163.532 225.79 164.473 226.129 165.523 225.87C166.129 225.663 166.795 225.585 167.496 225.412C167.974 225.265 168.297 224.957 168.433 224.581C168.535 224.299 168.637 224.016 168.2 223.753C168.106 223.719 168.046 223.591 168.046 223.591C167.847 222.669 167.068 222.175 166.222 221.87C164.717 221.327 163.23 221.322 161.976 222.146C161.686 222.36 161.397 222.574 161.073 222.883C160.425 223.5 160.684 224.55 161.617 225.205C161.805 225.273 162.148 225.503 162.524 225.639ZM162.915 225.142C162.573 224.912 162.103 224.743 161.794 224.419C161.298 224.027 161.279 223.489 161.671 222.992C161.833 222.838 162.123 222.624 162.379 222.503C163.659 221.902 165.017 221.967 166.361 222.664C167.173 223.063 167.252 223.73 167.236 224.362C167.255 224.9 166.657 224.79 166.367 225.005C166.367 225.005 166.367 225.005 166.239 225.065C165.249 225.452 164.138 225.583 162.915 225.142Z" fill="#251C1C"/>
<path d="M431.138 439.068C435.758 441.54 438.378 436.753 437.88 432.792C440.83 431.818 442.607 428.255 439.933 425.474C437.999 423.406 434.676 423.453 432.002 423.776C429.961 424.06 426.36 424.757 424.976 426.458C422.381 429.596 428.419 437.62 431.138 439.068ZM429.797 436.331C428.367 434.708 425.898 431.154 425.859 428.97C425.761 425.839 430.599 425.161 433.053 424.883C434.219 424.78 435.455 424.799 436.641 425.011C441.208 426.124 440.766 432.836 435.69 431.691C434.917 431.485 434.608 432.645 435.381 432.851C435.864 432.979 436.373 433.011 436.811 432.921C437.05 434.744 436.941 437.095 435.009 438.133C432.833 439.313 430.99 437.684 429.797 436.331Z" fill="#251C1C"/>
<path d="M444.018 428.011C445.339 428.88 447.471 429.034 448.199 427.468C448.675 426.456 448.353 425.336 447.612 424.621C447.541 424.499 447.47 424.376 447.399 424.254C446.007 423.262 444.094 423.063 442.6 424.011C440.835 425.197 442.962 427.315 444.018 428.011ZM443.947 426.336C443.709 426.065 443.135 425.499 443.238 425.112C443.315 424.822 444.165 424.738 444.384 424.693C445.016 424.654 445.525 424.686 446.079 424.937C446.15 425.06 446.22 425.182 446.414 425.233C447.258 425.562 447.458 426.753 446.724 427.179C445.79 427.965 444.591 427.025 443.947 426.336Z" fill="#251C1C"/>
<path d="M447.538 435.778C448.446 435.089 448.542 433.562 447.653 433.015C447.73 432.725 447.711 432.409 447.447 432.236C446.294 431.515 444.058 430.195 442.757 431.194C441.456 432.193 442.275 434.17 443.254 435.155C444.234 436.14 446.237 436.777 447.538 435.778ZM443.331 433.313C443.144 432.849 442.983 432.289 443.666 432.057C443.885 432.011 444.245 432.211 444.439 432.262C445.115 432.443 445.643 432.79 446.294 433.067C446.12 433.331 446.185 433.866 446.694 433.898C447.074 434.413 447.093 434.729 446.559 434.793C446.314 434.935 446.069 435.077 445.683 434.974C445.367 434.993 444.981 434.89 444.716 434.717C444.259 434.491 443.589 433.899 443.331 433.313Z" fill="#251C1C"/>
<path d="M441.216 441.648C442.272 442.343 443.754 442.22 444.52 441.286C444.739 441.241 444.984 441.099 444.99 440.687C444.989 439.134 444.235 437.692 443.011 436.848C442.051 436.179 439.732 435.561 439.391 437.23C439.102 438.705 439.991 440.804 441.216 441.648ZM441.267 439.902C441.054 439.535 440.938 439.194 440.847 438.756C440.802 438.537 440.757 438.318 440.712 438.099C440.499 437.732 440.551 437.538 440.963 437.545C441.671 437.216 442.606 437.982 443.012 438.401C443.489 438.942 443.746 439.528 443.785 440.159C443.785 440.159 443.785 440.159 443.76 440.256C443.161 441.338 441.763 440.759 441.267 439.902Z" fill="#251C1C"/>
<path d="M438.099 447.132C439.162 447.415 440.289 446.68 440.546 445.713C440.669 445.643 440.72 445.449 440.772 445.256C440.7 443.581 439.54 441.72 437.974 440.993C436.602 440.317 434.721 441.161 434.986 442.888C435.206 444.395 436.36 446.668 438.099 447.132ZM437.138 444.909C436.784 444.298 436.191 443.415 436.152 442.784C436.01 440.987 437.904 442.423 438.381 442.964C438.858 443.505 439.212 444.116 439.348 444.773C439.225 444.844 439.174 445.038 439.219 445.257C439.426 446.036 438.479 446.094 438.021 445.869C437.66 445.669 437.377 445.18 437.138 444.909Z" fill="#251C1C"/>
<path d="M251.466 286.672C255.412 290.118 259.041 286.042 259.445 282.07C262.539 281.784 265.07 278.711 263.089 275.4C261.669 272.951 258.42 272.25 255.743 271.964C253.689 271.783 250.024 271.653 248.293 273C245.06 275.475 249.142 284.65 251.466 286.672ZM250.774 283.704C249.745 281.801 248.138 277.783 248.59 275.646C249.198 272.573 254.064 272.999 256.517 273.279C257.677 273.44 258.878 273.737 259.985 274.21C264.186 276.32 262.248 282.761 257.558 280.506C256.851 280.131 256.29 281.192 256.997 281.566C257.439 281.8 257.927 281.946 258.375 281.956C258.198 283.786 257.564 286.053 255.448 286.63C253.062 287.291 251.632 285.289 250.774 283.704Z" fill="#251C1C"/>
<path d="M266.5 278.789C267.592 279.932 269.635 280.561 270.695 279.199C271.387 278.32 271.324 277.156 270.762 276.293C270.721 276.158 270.679 276.023 270.638 275.887C269.504 274.609 267.684 273.985 266.016 274.573C264.03 275.332 265.626 277.874 266.5 278.789ZM266.806 277.141C266.635 276.824 266.203 276.143 266.39 275.789C266.531 275.524 267.378 275.633 267.601 275.638C268.225 275.742 268.714 275.888 269.198 276.257C269.239 276.392 269.281 276.527 269.458 276.621C270.206 277.13 270.134 278.336 269.323 278.586C268.236 279.142 267.279 277.957 266.806 277.141Z" fill="#251C1C"/>
<path d="M268.185 287.148C269.225 286.68 269.661 285.214 268.918 284.481C269.058 284.216 269.11 283.904 268.892 283.675C267.93 282.714 266.048 280.926 264.556 281.607C263.064 282.288 263.418 284.399 264.151 285.579C264.884 286.759 266.693 287.829 268.185 287.148ZM264.639 283.801C264.561 283.307 264.53 282.725 265.247 282.652C265.471 282.657 265.778 282.932 265.954 283.026C266.573 283.353 267.01 283.811 267.582 284.227C267.353 284.445 267.296 284.98 267.785 285.126C268.04 285.713 267.988 286.025 267.452 285.968C267.182 286.051 266.911 286.135 266.558 285.948C266.246 285.896 265.892 285.708 265.674 285.48C265.279 285.158 264.759 284.43 264.639 283.801Z" fill="#251C1C"/>
<path d="M260.705 291.449C261.578 292.363 263.05 292.576 264.006 291.838C264.23 291.843 264.5 291.76 264.599 291.36C264.947 289.847 264.536 288.272 263.532 287.175C262.747 286.307 260.626 285.184 259.919 286.733C259.306 288.106 259.701 290.352 260.705 291.449ZM261.147 289.759C261.022 289.353 260.985 288.995 260.996 288.548C261.001 288.324 261.006 288.101 261.011 287.877C260.886 287.471 260.98 287.295 261.38 287.393C262.144 287.232 262.883 288.189 263.184 288.688C263.527 289.322 263.647 289.951 263.543 290.575C263.543 290.575 263.543 290.575 263.496 290.663C262.67 291.584 261.438 290.705 261.147 289.759Z" fill="#251C1C"/>
<path d="M256.437 296.092C257.409 296.606 258.673 296.143 259.14 295.259C259.276 295.218 259.369 295.041 259.463 294.864C259.769 293.216 259.057 291.142 257.695 290.082C256.509 289.115 254.487 289.515 254.357 291.257C254.233 292.775 254.846 295.25 256.437 296.092ZM256 293.711C255.792 293.035 255.413 292.042 255.516 291.418C255.781 289.635 257.305 291.459 257.648 292.094C257.991 292.728 258.199 293.404 258.184 294.074C258.049 294.116 257.955 294.293 257.95 294.516C257.976 295.322 257.04 295.166 256.645 294.844C256.338 294.568 256.172 294.028 256 293.711Z" fill="#251C1C"/>
<path d="M148.694 320.682C150.388 325.639 155.568 323.923 157.905 320.686C160.727 321.984 164.456 320.589 164.396 316.731C164.391 313.901 161.927 311.668 159.751 310.082C158.064 308.898 154.954 306.954 152.782 307.254C148.744 307.781 147.692 317.768 148.694 320.682ZM149.579 317.765C149.638 315.602 150.256 311.319 151.716 309.694C153.779 307.337 157.78 310.139 159.765 311.609C160.688 312.328 161.58 313.185 162.303 314.148C164.886 318.076 159.986 322.685 157.053 318.387C156.628 317.71 155.611 318.347 156.036 319.025C156.302 319.449 156.653 319.819 157.035 320.051C155.967 321.548 154.285 323.194 152.164 322.636C149.767 322.015 149.529 319.567 149.579 317.765Z" fill="#251C1C"/>
<path d="M165.655 321.371C166.029 322.908 167.484 324.474 169.083 323.824C170.121 323.409 170.649 322.369 170.595 321.341C170.626 321.203 170.658 321.065 170.689 320.927C170.347 319.253 169.083 317.803 167.344 317.478C165.244 317.143 165.356 320.142 165.655 321.371ZM166.744 320.097C166.754 319.737 166.721 318.931 167.06 318.719C167.314 318.559 167.993 319.077 168.184 319.194C168.673 319.596 169.023 319.966 169.257 320.527C169.226 320.665 169.194 320.803 169.301 320.972C169.694 321.788 169.028 322.796 168.201 322.607C166.982 322.545 166.746 321.041 166.744 320.097Z" fill="#251C1C"/>
<path d="M162.935 329.453C164.069 329.568 165.18 328.517 164.903 327.51C165.157 327.351 165.358 327.106 165.283 326.799C164.931 325.485 164.195 322.996 162.562 322.84C160.93 322.684 160.181 324.688 160.226 326.077C160.271 327.466 161.302 329.297 162.935 329.453ZM161.538 324.781C161.717 324.315 161.981 323.795 162.639 324.09C162.83 324.207 162.958 324.599 163.064 324.768C163.436 325.361 163.586 325.975 163.873 326.622C163.566 326.696 163.249 327.131 163.599 327.502C163.526 328.138 163.325 328.382 162.89 328.065C162.614 328.002 162.339 327.939 162.126 327.6C161.882 327.399 161.669 327.06 161.594 326.753C161.413 326.276 161.327 325.386 161.538 324.781Z" fill="#251C1C"/>
<path d="M154.307 329.437C154.606 330.667 155.773 331.587 156.971 331.425C157.162 331.542 157.438 331.605 157.723 331.307C158.781 330.171 159.213 328.602 158.892 327.15C158.646 326.006 157.371 323.973 155.984 324.961C154.766 325.843 153.986 327.986 154.307 329.437ZM155.534 328.195C155.629 327.781 155.776 327.453 156.009 327.071C156.125 326.88 156.241 326.688 156.358 326.497C156.452 326.084 156.622 325.978 156.919 326.263C157.661 326.506 157.823 327.703 157.834 328.286C157.814 329.007 157.604 329.612 157.202 330.1C157.202 330.1 157.202 330.1 157.117 330.153C155.941 330.537 155.313 329.16 155.534 328.195Z" fill="#251C1C"/>
<path d="M148.289 331.325C148.874 332.256 150.199 332.487 151.046 331.956C151.184 331.987 151.354 331.881 151.523 331.775C152.613 330.501 153.033 328.348 152.383 326.749C151.84 325.319 149.888 324.654 148.905 326.098C148.038 327.35 147.332 329.8 148.289 331.325ZM149.101 329.044C149.259 328.355 149.427 327.305 149.829 326.817C150.95 325.405 151.357 327.747 151.337 328.468C151.317 329.189 151.159 329.878 150.81 330.451C150.673 330.419 150.503 330.526 150.387 330.717C150.007 331.428 149.274 330.825 149.093 330.348C148.965 329.956 149.091 329.405 149.101 329.044Z" fill="#251C1C"/>
<path d="M10.0984 211.063C11.7929 216.02 16.9732 214.304 19.3098 211.067C22.1318 212.366 25.8605 210.97 25.8004 207.112C25.7952 204.282 23.3319 202.05 21.156 200.464C19.4685 199.28 16.3591 197.335 14.1866 197.636C10.149 198.162 9.0967 208.15 10.0984 211.063ZM10.9835 208.146C11.0431 205.984 11.6607 201.7 13.1205 200.076C15.1832 197.719 19.1845 200.52 21.1694 201.99C22.0929 202.709 22.9849 203.566 23.7075 204.529C26.2905 208.457 21.3911 213.067 18.4576 208.768C18.0324 208.091 17.0159 208.729 17.4412 209.406C17.707 209.83 18.0575 210.2 18.4395 210.433C17.3716 211.929 15.6893 213.575 13.5682 213.017C11.1715 212.396 10.9338 209.948 10.9835 208.146Z" fill="#251C1C"/>
<path d="M27.0597 211.752C27.4335 213.289 28.8885 214.855 30.4879 214.205C31.526 213.79 32.0541 212.75 31.9992 211.722C32.0308 211.584 32.0623 211.446 32.0939 211.309C31.7516 209.634 30.4875 208.185 28.7485 207.859C26.6491 207.524 26.7606 210.523 27.0597 211.752ZM28.1491 210.478C28.1591 210.118 28.1258 209.313 28.4646 209.1C28.7187 208.94 29.3981 209.459 29.5891 209.575C30.0774 209.977 30.4279 210.347 30.6621 210.908C30.6306 211.046 30.599 211.184 30.7053 211.354C31.099 212.169 30.4331 213.177 29.6059 212.988C28.3868 212.927 28.1508 211.422 28.1491 210.478Z" fill="#251C1C"/>
<path d="M24.3397 219.835C25.4741 219.949 26.5851 218.898 26.3077 217.891C26.5618 217.732 26.7627 217.488 26.688 217.18C26.3358 215.867 25.5998 213.377 23.9671 213.221C22.3344 213.065 21.5856 215.07 21.6305 216.458C21.6754 217.847 22.707 219.679 24.3397 219.835ZM22.9425 215.163C23.1219 214.696 23.3859 214.176 24.0436 214.472C24.2346 214.588 24.3626 214.98 24.4689 215.149C24.841 215.742 24.9905 216.357 25.2779 217.003C24.9706 217.077 24.6534 217.513 25.0039 217.883C24.9308 218.519 24.7299 218.763 24.2947 218.446C24.019 218.383 23.7433 218.32 23.5307 217.981C23.2865 217.78 23.0739 217.441 22.9991 217.134C22.818 216.657 22.7316 215.767 22.9425 215.163Z" fill="#251C1C"/>
<path d="M15.7112 219.819C16.0103 221.048 17.178 221.968 18.3755 221.807C18.5665 221.923 18.8422 221.986 19.1279 221.689C20.1858 220.552 20.6175 218.983 20.2969 217.531C20.051 216.387 18.7753 214.354 17.3885 215.342C16.1711 216.224 15.3906 218.367 15.7112 219.819ZM16.9386 218.576C17.0332 218.163 17.181 217.834 17.4135 217.452C17.5298 217.261 17.646 217.07 17.7623 216.879C17.8569 216.465 18.0263 216.359 18.3236 216.644C19.0661 216.887 19.2273 218.084 19.2389 218.667C19.2191 219.388 19.0082 219.993 18.6063 220.481C18.6063 220.481 18.6062 220.481 18.5215 220.534C17.3456 220.918 16.7177 219.541 16.9386 218.576Z" fill="#251C1C"/>
<path d="M9.69392 221.706C10.2786 222.638 11.6041 222.868 12.4511 222.337C12.5889 222.368 12.7583 222.262 12.9277 222.156C14.0172 220.882 14.4373 218.729 13.7878 217.13C13.2445 215.7 11.2929 215.036 10.3097 216.479C9.44284 217.731 8.73713 220.181 9.69392 221.706ZM10.506 219.425C10.6637 218.736 10.8314 217.686 11.2333 217.198C12.3543 215.786 12.7614 218.128 12.7415 218.849C12.7216 219.57 12.5639 220.259 12.2151 220.832C12.0772 220.8 11.9078 220.907 11.7916 221.098C11.4113 221.809 10.6788 221.206 10.4977 220.729C10.3698 220.337 10.496 219.786 10.506 219.425Z" fill="#251C1C"/>
<path d="M363.42 341.052C368.124 343.359 370.573 338.483 369.937 334.542C372.85 333.464 374.5 329.841 371.729 327.155C369.725 325.158 366.404 325.321 363.744 325.738C361.714 326.094 358.14 326.918 356.817 328.667C354.334 331.894 360.652 339.7 363.42 341.052ZM361.984 338.364C360.497 336.793 357.904 333.327 357.788 331.146C357.58 328.021 362.39 327.173 364.833 326.808C365.995 326.664 367.231 326.639 368.423 326.809C373.027 327.76 372.822 334.484 367.709 333.519C366.929 333.34 366.661 334.51 367.441 334.689C367.928 334.8 368.438 334.814 368.873 334.708C369.176 336.522 369.15 338.875 367.256 339.981C365.122 341.236 363.223 339.673 361.984 338.364Z" fill="#251C1C"/>
<path d="M375.901 329.546C377.252 330.368 379.388 330.447 380.06 328.857C380.5 327.829 380.138 326.72 379.373 326.032C379.297 325.912 379.222 325.793 379.147 325.673C377.721 324.731 375.802 324.6 374.342 325.599C372.621 326.847 374.821 328.889 375.901 329.546ZM375.771 327.875C375.523 327.613 374.93 327.067 375.019 326.677C375.086 326.385 375.933 326.271 376.15 326.218C376.779 326.157 377.289 326.171 377.852 326.402C377.927 326.522 378.002 326.642 378.197 326.686C379.052 326.985 379.294 328.168 378.575 328.619C377.67 329.438 376.439 328.541 375.771 327.875Z" fill="#251C1C"/>
<path d="M379.693 337.185C380.576 336.463 380.618 334.934 379.71 334.419C379.777 334.126 379.747 333.812 379.476 333.647C378.298 332.967 376.018 331.727 374.753 332.771C373.488 333.816 374.376 335.763 375.39 336.713C376.403 337.663 378.428 338.229 379.693 337.185ZM375.401 334.869C375.198 334.412 375.017 333.858 375.691 333.602C375.909 333.549 376.276 333.736 376.471 333.78C377.153 333.936 377.694 334.265 378.354 334.519C378.189 334.789 378.273 335.321 378.783 335.335C379.181 335.836 379.211 336.151 378.679 336.235C378.44 336.385 378.2 336.535 377.81 336.446C377.495 336.477 377.106 336.387 376.835 336.223C376.37 336.014 375.68 335.446 375.401 334.869Z" fill="#251C1C"/>
<path d="M373.58 343.276C374.661 343.933 376.137 343.758 376.87 342.797C377.087 342.745 377.327 342.594 377.319 342.182C377.263 340.631 376.459 339.215 375.205 338.416C374.222 337.78 371.883 337.245 371.601 338.924C371.364 340.409 372.327 342.476 373.58 343.276ZM373.57 341.529C373.344 341.17 373.216 340.833 373.11 340.398C373.058 340.181 373.005 339.964 372.952 339.746C372.726 339.387 372.771 339.192 373.183 339.184C373.88 338.83 374.84 339.563 375.261 339.967C375.756 340.491 376.035 341.068 376.096 341.697C376.096 341.697 376.096 341.697 376.074 341.795C375.514 342.897 374.096 342.368 373.57 341.529Z" fill="#251C1C"/>
<path d="M370.66 348.864C371.732 349.109 372.833 348.335 373.056 347.36C373.175 347.285 373.22 347.09 373.265 346.895C373.134 345.224 371.909 343.405 370.319 342.733C368.924 342.106 367.074 343.017 367.399 344.732C367.672 346.231 368.905 348.462 370.66 348.864ZM369.622 346.677C369.246 346.078 368.622 345.217 368.561 344.588C368.355 342.797 370.299 344.165 370.795 344.689C371.29 345.213 371.666 345.811 371.825 346.463C371.705 346.538 371.66 346.733 371.713 346.951C371.947 347.722 371.003 347.814 370.538 347.605C370.17 347.418 369.869 346.939 369.622 346.677Z" fill="#251C1C"/>
</svg>
